<svg width="31" height="31" viewBox="0 0 31 31" fill="none" xmlns="http://www.w3.org/2000/svg">
<path d="M0 4.84375C0 4.58682 0.102064 4.34042 0.28374 4.15874C0.465416 3.97706 0.711822 3.875 0.96875 3.875H3.875C4.09109 3.87506 4.30096 3.94737 4.47123 4.08042C4.6415 4.21348 4.76239 4.39964 4.81469 4.60931L5.59938 7.75H28.0938C28.2409 7.75004 28.3861 7.7836 28.5184 7.84814C28.6506 7.91268 28.7664 8.00649 28.857 8.12246C28.9475 8.23844 29.0105 8.37352 29.0411 8.51746C29.0717 8.6614 29.069 8.81041 29.0334 8.95319L26.1272 20.5782C26.0749 20.7879 25.954 20.974 25.7837 21.1071C25.6135 21.2401 25.4036 21.3124 25.1875 21.3125H7.75C7.53391 21.3124 7.32404 21.2401 7.15377 21.1071C6.9835 20.974 6.86261 20.7879 6.81031 20.5782L3.11938 5.8125H0.96875C0.711822 5.8125 0.465416 5.71044 0.28374 5.52876C0.102064 5.34708 0 5.10068 0 4.84375ZM6.08375 9.6875L8.50563 19.375H24.4319L26.8538 9.6875H6.08375ZM9.6875 25.1875C9.17364 25.1875 8.68083 25.3916 8.31748 25.755C7.95413 26.1183 7.75 26.6111 7.75 27.125C7.75 27.6389 7.95413 28.1317 8.31748 28.495C8.68083 28.8584 9.17364 29.0625 9.6875 29.0625C10.2014 29.0625 10.6942 28.8584 11.0575 28.495C11.4209 28.1317 11.625 27.6389 11.625 27.125C11.625 26.6111 11.4209 26.1183 11.0575 25.755C10.6942 25.3916 10.2014 25.1875 9.6875 25.1875ZM5.8125 27.125C5.8125 26.0973 6.22076 25.1117 6.94746 24.385C7.67416 23.6583 8.65979 23.25 9.6875 23.25C10.7152 23.25 11.7008 23.6583 12.4275 24.385C13.1542 25.1117 13.5625 26.0973 13.5625 27.125C13.5625 28.1527 13.1542 29.1383 12.4275 29.865C11.7008 30.5917 10.7152 31 9.6875 31C8.65979 31 7.67416 30.5917 6.94746 29.865C6.22076 29.1383 5.8125 28.1527 5.8125 27.125ZM23.25 25.1875C22.7361 25.1875 22.2433 25.3916 21.88 25.755C21.5166 26.1183 21.3125 26.6111 21.3125 27.125C21.3125 27.6389 21.5166 28.1317 21.88 28.495C22.2433 28.8584 22.7361 29.0625 23.25 29.0625C23.7639 29.0625 24.2567 28.8584 24.62 28.495C24.9834 28.1317 25.1875 27.6389 25.1875 27.125C25.1875 26.6111 24.9834 26.1183 24.62 25.755C24.2567 25.3916 23.7639 25.1875 23.25 25.1875ZM19.375 27.125C19.375 26.0973 19.7833 25.1117 20.51 24.385C21.2367 23.6583 22.2223 23.25 23.25 23.25C24.2777 23.25 25.2633 23.6583 25.99 24.385C26.7167 25.1117 27.125 26.0973 27.125 27.125C27.125 28.1527 26.7167 29.1383 25.99 29.865C25.2633 30.5917 24.2777 31 23.25 31C22.2223 31 21.2367 30.5917 20.51 29.865C19.7833 29.1383 19.375 28.1527 19.375 27.125Z" fill="#8325aa"/>
</svg>
