<svg width="19" height="24" viewBox="0 0 19 24" fill="none" xmlns="http://www.w3.org/2000/svg">
<path fill-rule="evenodd" clip-rule="evenodd" d="M1.95463 6.96864C2.00978 6.89879 2.0753 6.84338 2.14744 6.80557C2.21957 6.76776 2.2969 6.7483 2.375 6.7483C2.4531 6.7483 2.53043 6.76776 2.60257 6.80557C2.6747 6.84338 2.74022 6.89879 2.79538 6.96864L9.5 15.4391L16.2046 6.96864C16.3161 6.82781 16.4673 6.74869 16.625 6.74869C16.7827 6.74869 16.9339 6.82781 17.0454 6.96864C17.1569 7.10947 17.2195 7.30047 17.2195 7.49964C17.2195 7.6988 17.1569 7.88981 17.0454 8.03064L9.92038 17.0306C9.86522 17.1005 9.7997 17.1559 9.72757 17.1937C9.65543 17.2315 9.5781 17.251 9.5 17.251C9.4219 17.251 9.34457 17.2315 9.27244 17.1937C9.2003 17.1559 9.13478 17.1005 9.07963 17.0306L1.95463 8.03064C1.89933 7.96097 1.85546 7.8782 1.82553 7.78709C1.7956 7.69597 1.78019 7.59829 1.78019 7.49964C1.78019 7.40098 1.7956 7.3033 1.82553 7.21219C1.85546 7.12107 1.89933 7.0383 1.95463 6.96864Z" fill="#8325aa"/>
</svg>
