<svg width="19" height="24" viewBox="0 0 16 16" fill="none" xmlns="http://www.w3.org/2000/svg">
<path fill-rule="evenodd" clip-rule="evenodd" d="M7.64601 4.64604C7.69245 4.59948 7.74763 4.56253 7.80837 4.53733C7.86912 4.51212 7.93424 4.49915 8.00001 4.49915C8.06577 4.49915 8.13089 4.51212 8.19164 4.53733C8.25238 4.56253 8.30756 4.59948 8.35401 4.64604L14.354 10.646C14.4479 10.7399 14.5006 10.8673 14.5006 11C14.5006 11.1328 14.4479 11.2602 14.354 11.354C14.2601 11.4479 14.1328 11.5007 14 11.5007C13.8672 11.5007 13.7399 11.4479 13.646 11.354L8.00001 5.70704L2.35401 11.354C2.26012 11.4479 2.13278 11.5007 2.00001 11.5007C1.86723 11.5007 1.73989 11.4479 1.64601 11.354C1.55212 11.2602 1.49937 11.1328 1.49937 11C1.49937 10.8673 1.55212 10.7399 1.64601 10.646L7.64601 4.64604Z" fill="#8325aa"/>
</svg>
