<svg width="28" height="28" viewBox="0 0 28 28" fill="none" xmlns="http://www.w3.org/2000/svg">
<path d="M9.66666 8.24956V14.0723C8.01837 14.4068 6.77777 15.8641 6.77777 17.6111C6.77777 19.6055 8.39452 21.2222 10.3889 21.2222C12.3832 21.2222 14 19.6055 14 17.6111V1H18.5846C19.5092 4.91414 22.8836 7.88173 27 8.19487V14L26.2778 14C23.755 14 21.4647 13.0051 19.7778 11.3862V17.6111C19.7778 22.7964 15.5742 27 10.3889 27C5.20354 27 1 22.7964 1 17.6111C1 12.6688 4.81878 8.61835 9.66666 8.24956ZM9.66666 8.24956V8.22223" stroke="#a81de4" stroke-width="2" stroke-linecap="round" stroke-linejoin="round"/>
</svg>
