<svg width="192" height="192" viewBox="0 0 192 192" fill="none" xmlns="http://www.w3.org/2000/svg">
<path d="M95.5586 191.487C77.2135 191.757 60.7794 187.7 46.2562 179.316C31.9879 170.932 20.7771 159.437 12.6238 144.832C4.7252 129.957 0.521166 113.459 0.0115816 95.3376C-0.24321 77.2167 3.70602 60.989 11.8594 46.6546C20.0127 32.3201 31.3509 20.9607 45.8741 12.5764C60.652 4.19214 77.2135 0 95.5586 0C113.394 0 129.446 4.05692 143.714 12.1708C158.237 20.2846 169.703 31.644 178.111 46.2489C186.519 60.8538 190.978 77.2167 191.488 95.3376C191.742 112.918 187.793 129.01 179.64 143.615C171.487 157.949 160.021 169.444 145.243 178.099C130.72 186.754 114.158 191.216 95.5586 191.487ZM96.7051 132.256C103.584 132.256 109.572 129.416 114.668 123.736C119.764 118.056 122.312 111.43 122.312 103.857C122.312 96.2842 119.764 89.7931 114.668 84.3839C109.572 78.7042 103.584 75.8644 96.7051 75.8644C89.8257 75.8644 83.8381 78.7042 78.7422 84.3839C73.6464 89.7931 71.0984 96.2842 71.0984 103.857C71.0984 111.43 73.6464 118.056 78.7422 123.736C83.8381 129.416 89.8257 132.256 96.7051 132.256Z" fill="#F0BB7C"/>
<path fill-rule="evenodd" clip-rule="evenodd" d="M118.099 10.4998C132.726 7.26048 147.471 15.4665 152.763 29.7911C155.372 36.8551 160.419 42.6986 166.95 46.2184C180.195 53.356 186.338 69.3358 181.392 83.785L181.025 84.8576C178.822 91.2919 178.999 98.3294 181.521 104.642L182.379 106.789C187.589 119.825 181.52 134.712 168.803 140.095C161.185 143.319 155.612 150.179 153.907 158.431L153.602 159.904C150.53 174.769 136.365 184.497 121.706 182.037C114.929 180.899 107.895 182.324 102.086 186.07L101.412 186.504C88.7523 194.666 72.1549 192.113 62.394 180.502L61.2023 179.084C57.1566 174.272 51.5292 171.14 45.3824 170.28L44.5515 170.164C30.178 168.154 20.6028 153.935 23.89 139.482L24.3056 137.655C26.4847 128.075 22.3618 118.149 14.1063 113.101C2.51013 106.01 -0.222193 90.0374 8.3324 79.3473L9.99083 77.2749C13.7622 72.5621 15.7161 66.5993 15.4836 60.512L15.4347 59.2306C14.8482 43.875 26.3409 30.8485 41.3322 29.8767L45.0627 29.6349C53.2251 29.1058 60.4576 24.0748 63.9383 16.5047C69.481 4.44982 83.8614 -0.255791 95.2202 6.26852L98.3715 8.07862C103.869 11.236 110.304 12.2261 116.464 10.8619L118.099 10.4998ZM135.778 114.415C141.646 110.597 143.207 102.594 139.218 96.7777L136.167 92.3289C134.883 90.4571 134.128 88.2658 133.983 85.9921L133.639 80.6184C133.187 73.5425 127.028 68.2548 120.076 68.9756L114.824 69.5202C110.976 69.9191 107.164 68.4603 104.53 65.5811L102.753 63.6385C97.8456 58.274 89.4739 58.3044 84.6255 63.7043L81.4506 67.2403C79.9399 68.9229 78.0035 70.1534 75.851 70.7986L68.8568 72.895C62.9276 74.6722 59.2275 80.6389 60.2113 86.8363L61.3719 94.1469C61.7291 96.3968 61.4731 98.7017 60.6316 100.812L57.8974 107.67C55.5796 113.483 57.8768 120.147 63.2651 123.241L69.6211 126.89C71.5773 128.013 73.1945 129.656 74.2977 131.643L77.8823 138.098C80.9212 143.57 87.486 145.913 93.2211 143.573L99.9864 140.813C102.069 139.963 104.341 139.708 106.558 140.075L111.692 140.924C118.632 142.072 125.098 137.104 125.885 130.019L126.327 126.033C126.741 122.304 128.788 118.964 131.9 116.939L135.778 114.415Z" fill="#6D3B00"/>
<rect width="11.6746" height="2.95214" rx="1.47607" transform="matrix(0.859932 0.510408 -0.493148 0.869946 123.319 29.6898)" fill="#6D3B00"/>
<rect width="11.8639" height="2.90458" rx="1.45229" transform="matrix(0.207779 0.978176 -0.976148 0.217104 95.8793 38.2269)" fill="#FF8B95"/>
<rect width="11.6433" height="2.95985" rx="1.47993" transform="matrix(-0.926223 0.376976 -0.362304 -0.93206 118.487 59.2807)" fill="#FF8B95"/>
<rect width="11.7208" height="2.94067" rx="1.47034" transform="matrix(-0.75259 -0.658489 0.641231 -0.767348 137.063 24.8906)" fill="#FF8B95"/>
<rect width="11.6433" height="2.95985" rx="1.47993" transform="matrix(-0.926223 0.376976 -0.362304 -0.93206 169.989 99.2507)" fill="#FF8B95"/>
<rect width="11.6467" height="2.95901" rx="1.47951" transform="matrix(-0.919189 -0.393816 0.378708 -0.925516 109.372 172.015)" fill="#6D3B00"/>
<rect width="11.7543" height="2.93228" rx="1.46614" transform="matrix(-0.664769 0.747049 -0.73164 -0.681691 113.535 23.5095)" fill="white"/>
<rect width="11.7543" height="2.93228" rx="1.46614" transform="matrix(-0.664769 0.747049 -0.73164 -0.681691 140.527 58.4095)" fill="#FF8B95"/>
<rect width="11.8603" height="2.9055" rx="1.45275" transform="matrix(0.236771 0.971565 -0.968953 0.247245 150.058 45.2886)" fill="white"/>
<rect width="11.7543" height="2.93228" rx="1.46614" transform="matrix(-0.664769 0.747049 -0.73164 -0.681691 72.3413 52.4717)" fill="#FF8B95"/>
<rect width="11.6095" height="2.96812" rx="1.48406" transform="matrix(-0.993227 -0.11619 0.111034 -0.993817 70.061 41.6826)" fill="white"/>
<rect width="11.6074" height="2.96864" rx="1.48432" transform="matrix(-0.997308 -0.0733298 0.0700511 -0.997543 44.0309 47.3774)" fill="#FF8B95"/>
<rect width="11.6074" height="2.96864" rx="1.48432" transform="matrix(-0.997308 -0.0733298 0.0700511 -0.997543 53.6479 79.5215)" fill="white"/>
<rect width="11.638" height="2.96115" rx="1.48058" transform="matrix(-0.937015 0.349289 -0.335395 -0.942078 35.0532 62.1328)" fill="#6D3B00"/>
<rect width="11.775" height="2.92711" rx="1.46355" transform="matrix(-0.605 0.796225 -0.78255 -0.622587 153.039 139.88)" fill="#FF8B95"/>
<rect width="11.7602" height="2.93082" rx="1.46541" transform="matrix(-0.648425 0.761279 -0.746316 -0.665591 160.226 117.164)" fill="#6D3B00"/>
<rect width="11.6232" height="2.96477" rx="1.48238" transform="matrix(-0.966502 -0.256661 0.24584 -0.969311 149.431 92.9962)" fill="#FF8B95"/>
<rect width="11.6232" height="2.96477" rx="1.48238" transform="matrix(-0.966502 -0.256661 0.24584 -0.969311 179.521 66.7212)" fill="#6D3B00"/>
<rect width="11.8126" height="2.91761" rx="1.45881" transform="matrix(-0.477911 -0.878408 0.868903 -0.494983 162.767 78.6097)" fill="#FF8B95"/>
<rect width="11.864" height="2.90456" rx="1.45228" transform="matrix(0.207129 -0.978314 0.976299 0.216429 127.66 167.271)" fill="#FF8B95"/>
<rect width="11.6511" height="2.95793" rx="1.47896" transform="matrix(0.910056 -0.414486 0.398882 0.917002 70.7435 168.986)" fill="white"/>
<rect width="11.6511" height="2.95793" rx="1.47896" transform="matrix(0.910056 -0.414486 0.398882 0.917002 62.3821 145.856)" fill="#FF8B95"/>
<rect width="11.6511" height="2.85837" rx="1.42918" transform="matrix(0.910056 -0.414486 0.398882 0.917002 30.4656 123.589)" fill="#FF8B95"/>
<rect width="11.6062" height="2.869" rx="1.4345" transform="matrix(0.999677 0.0254295 -0.0242875 0.999705 43.6276 160.984)" fill="#6D3B00"/>
<rect width="11.6992" height="2.84688" rx="1.42344" transform="matrix(0.804383 -0.594112 0.576422 0.817153 71.4329 20.8821)" fill="#6D3B00"/>
<rect width="11.6232" height="2.96477" rx="1.48238" transform="matrix(-0.966502 -0.256661 0.24584 -0.969311 114.237 152.822)" fill="#FF8B95"/>
<rect width="11.8252" height="2.91443" rx="1.45721" transform="matrix(-0.427514 -0.904009 0.896155 -0.443741 47.1271 151.526)" fill="white"/>
<rect width="11.851" height="2.90787" rx="1.45394" transform="matrix(0.299308 -0.954157 0.950067 0.312048 23.8911 107.684)" fill="#FF8B95"/>
<rect width="11.7961" height="2.92178" rx="1.46089" transform="matrix(-0.537126 -0.843502 0.832021 -0.554744 54.2106 108.063)" fill="#6D3B00"/>
<rect width="11.7961" height="2.92178" rx="1.46089" transform="matrix(-0.537126 -0.843502 0.832021 -0.554744 132.551 137.753)" fill="white"/>
</svg>
