<svg width="33" height="33" viewBox="0 0 33 33" fill="none" xmlns="http://www.w3.org/2000/svg">
<path d="M16.3693 32.8018C13.2267 32.8481 10.4115 32.1532 7.92372 30.7169C5.47954 29.2807 3.55913 27.3117 2.16246 24.8098C0.80943 22.2617 0.0892761 19.4355 0.00198393 16.3314C-0.0416621 13.2273 0.634845 10.4475 2.03152 7.99196C3.42819 5.53646 5.37044 3.59059 7.85826 2.15435C10.3897 0.718117 13.2267 0 16.3693 0C19.4245 0 22.1742 0.694954 24.6184 2.08486C27.1062 3.47477 29.0703 5.42064 30.5106 7.92247C31.9509 10.4243 32.7147 13.2273 32.802 16.3314C32.8456 19.3429 32.1691 22.0995 30.7725 24.6013C29.3758 27.0569 27.4117 29.0259 24.8802 30.5085C22.3924 31.991 19.5554 32.7555 16.3693 32.8018ZM16.5657 22.6555C17.7441 22.6555 18.7698 22.169 19.6427 21.1961C20.5156 20.2231 20.9521 19.0881 20.9521 17.7908C20.9521 16.4936 20.5156 15.3816 19.6427 14.455C18.7698 13.4821 17.7441 12.9956 16.5657 12.9956C15.3872 12.9956 14.3615 13.4821 13.4886 14.455C12.6157 15.3816 12.1792 16.4936 12.1792 17.7908C12.1792 19.0881 12.6157 20.2231 13.4886 21.1961C14.3615 22.169 15.3872 22.6555 16.5657 22.6555Z" fill="#F0BB7C"/>
<path fill-rule="evenodd" clip-rule="evenodd" d="M20.2305 1.79978C22.7362 1.24488 25.262 2.65057 26.1685 5.10439C26.6155 6.31446 27.48 7.31545 28.5988 7.9184C30.8675 9.14108 31.9198 11.8784 31.0726 14.3536L31.0097 14.5373C30.6325 15.6395 30.6627 16.8451 31.0948 17.9263L31.2418 18.2942C32.1341 20.5273 31.0946 23.0775 28.9161 23.9996C27.6111 24.5519 26.6565 25.7269 26.3644 27.1405L26.3122 27.3928C25.786 29.9393 23.3594 31.6057 20.8484 31.1842C19.6874 30.9893 18.4826 31.2335 17.4875 31.875L17.372 31.9495C15.2034 33.3477 12.3602 32.9103 10.6882 30.9213L10.4841 30.6784C9.79102 29.854 8.82703 29.3175 7.77408 29.1703L7.63176 29.1504C5.16957 28.806 3.52933 26.3703 4.09243 23.8946L4.16362 23.5816C4.5369 21.9404 3.83065 20.2402 2.41648 19.3755C0.430043 18.1608 -0.0380059 15.4246 1.4274 13.5934L1.71149 13.2384C2.35753 12.4311 2.69223 11.4097 2.65241 10.3669L2.64403 10.1474C2.54357 7.51698 4.51227 5.28553 7.08029 5.11906L7.71934 5.07764C9.11756 4.98701 10.3565 4.12518 10.9527 2.82842C11.9022 0.763412 14.3656 -0.0426636 16.3113 1.07496L16.8512 1.38503C17.7928 1.92589 18.8953 2.09549 19.9505 1.8618L20.2305 1.79978ZM23.2591 19.5991C24.2643 18.945 24.5316 17.5741 23.8484 16.5778L23.3257 15.8157C23.1058 15.4951 22.9764 15.1197 22.9515 14.7302L22.8927 13.8097C22.8152 12.5976 21.7601 11.6918 20.5693 11.8153L19.6695 11.9086C19.0105 11.9769 18.3575 11.727 17.9063 11.2338L17.6019 10.9011C16.7612 9.98212 15.3271 9.98732 14.4966 10.9123L13.9527 11.518C13.6939 11.8063 13.3622 12.0171 12.9935 12.1276L11.7954 12.4867C10.7797 12.7911 10.1459 13.8132 10.3144 14.8749L10.5132 16.1272C10.5744 16.5126 10.5306 16.9074 10.3864 17.2689L9.91804 18.4437C9.52099 19.4395 9.91452 20.5811 10.8375 21.111L11.9263 21.736C12.2614 21.9284 12.5384 22.21 12.7274 22.5503L13.3415 23.656C13.862 24.5934 14.9866 24.9948 15.969 24.5939L17.1279 24.1211C17.4846 23.9755 17.8739 23.9318 18.2537 23.9946L19.133 24.1401C20.3219 24.3367 21.4295 23.4857 21.5643 22.2721L21.6401 21.5894C21.7111 20.9504 22.0616 20.3784 22.5947 20.0315L23.2591 19.5991Z" fill="#BAE1FF"/>
<rect width="1.99986" height="0.505704" rx="0.252852" transform="matrix(0.859932 0.510408 -0.493148 0.869946 21.1246 5.08594)" fill="#6D3B00"/>
<rect width="2.03229" height="0.497557" rx="0.248779" transform="matrix(0.207779 0.978176 -0.976148 0.217104 16.4242 6.54785)" fill="#FF8B95"/>
<rect width="1.9945" height="0.507025" rx="0.253513" transform="matrix(-0.926223 0.376976 -0.362304 -0.93206 20.297 10.1553)" fill="#FF8B95"/>
<rect width="2.00778" height="0.503739" rx="0.25187" transform="matrix(-0.75259 -0.658489 0.641231 -0.767348 23.4789 4.26367)" fill="#FF8B95"/>
<rect width="1.9945" height="0.507025" rx="0.253513" transform="matrix(-0.926223 0.376976 -0.362304 -0.93206 29.1191 17.001)" fill="#FF8B95"/>
<rect width="1.99508" height="0.506881" rx="0.253441" transform="matrix(-0.919189 -0.393816 0.378708 -0.925516 18.7356 29.4658)" fill="#6D3B00"/>
<rect width="2.01353" height="0.502302" rx="0.251151" transform="matrix(-0.664769 0.747049 -0.73164 -0.681691 19.4486 4.02734)" fill="white"/>
<rect width="2.01353" height="0.502302" rx="0.251151" transform="matrix(-0.664769 0.747049 -0.73164 -0.681691 24.0724 10.0059)" fill="#FF8B95"/>
<rect width="2.03168" height="0.497714" rx="0.248857" transform="matrix(0.236771 0.971565 -0.968953 0.247245 25.7051 7.75781)" fill="white"/>
<rect width="2.01353" height="0.502302" rx="0.251151" transform="matrix(-0.664769 0.747049 -0.73164 -0.681691 12.3921 8.98828)" fill="#FF8B95"/>
<rect width="1.98872" height="0.508441" rx="0.254221" transform="matrix(-0.993227 -0.11619 0.111034 -0.993817 12.0016 7.13965)" fill="white"/>
<rect width="1.98836" height="0.50853" rx="0.254265" transform="matrix(-0.997308 -0.0733298 0.0700511 -0.997543 7.5426 8.11523)" fill="#FF8B95"/>
<rect width="1.98836" height="0.50853" rx="0.254265" transform="matrix(-0.997308 -0.0733298 0.0700511 -0.997543 9.19006 13.6211)" fill="white"/>
<rect width="1.99359" height="0.507248" rx="0.253624" transform="matrix(-0.937015 0.349289 -0.335395 -0.942078 6.00452 10.6436)" fill="#6D3B00"/>
<rect width="2.01706" height="0.501416" rx="0.250708" transform="matrix(-0.605 0.796225 -0.78255 -0.622587 26.2157 23.9609)" fill="#FF8B95"/>
<rect width="2.01453" height="0.502052" rx="0.251026" transform="matrix(-0.648425 0.761279 -0.746316 -0.665591 27.4469 20.0703)" fill="#6D3B00"/>
<rect width="1.99107" height="0.507867" rx="0.253934" transform="matrix(-0.966502 -0.256661 0.24584 -0.969311 25.5977 15.9307)" fill="#FF8B95"/>
<rect width="1.99107" height="0.507867" rx="0.253934" transform="matrix(-0.966502 -0.256661 0.24584 -0.969311 30.7521 11.4287)" fill="#6D3B00"/>
<rect width="2.02351" height="0.499789" rx="0.249894" transform="matrix(-0.477911 -0.878408 0.868903 -0.494983 27.882 13.4648)" fill="#FF8B95"/>
<rect width="2.0323" height="0.497554" rx="0.248777" transform="matrix(0.207129 -0.978314 0.976299 0.216429 21.868 28.6543)" fill="#FF8B95"/>
<rect width="1.99584" height="0.506696" rx="0.253348" transform="matrix(0.910056 -0.414487 0.398882 0.917002 12.1184 28.9473)" fill="white"/>
<rect width="1.99584" height="0.506696" rx="0.253348" transform="matrix(0.910056 -0.414487 0.398882 0.917002 10.686 24.9854)" fill="#FF8B95"/>
<rect width="1.99584" height="0.48964" rx="0.24482" transform="matrix(0.910056 -0.414487 0.398882 0.917002 5.21875 21.1699)" fill="#FF8B95"/>
<rect width="1.98815" height="0.491463" rx="0.245731" transform="matrix(0.999677 0.0254295 -0.0242875 0.999705 7.47339 27.5771)" fill="#6D3B00"/>
<rect width="2.00408" height="0.487672" rx="0.243836" transform="matrix(0.804383 -0.594112 0.576422 0.817153 12.2366 3.57812)" fill="#6D3B00"/>
<rect width="1.99107" height="0.507867" rx="0.253934" transform="matrix(-0.966502 -0.256661 0.24584 -0.969311 19.5688 26.1787)" fill="#FF8B95"/>
<rect width="2.02566" height="0.499244" rx="0.249622" transform="matrix(-0.427514 -0.904009 0.896155 -0.443741 8.07288 25.957)" fill="white"/>
<rect width="2.03008" height="0.498121" rx="0.24906" transform="matrix(0.299308 -0.954157 0.950066 0.312048 4.09253 18.4473)" fill="#FF8B95"/>
<rect width="2.02069" height="0.500503" rx="0.250251" transform="matrix(-0.537126 -0.843502 0.832021 -0.554744 9.28638 18.5107)" fill="#6D3B00"/>
<rect width="2.02069" height="0.500503" rx="0.250251" transform="matrix(-0.537126 -0.843502 0.832021 -0.554744 22.7061 23.5967)" fill="white"/>
</svg>
