<svg width="36" height="36" viewBox="0 0 182 182" fill="none" xmlns="http://www.w3.org/2000/svg">
<path d="M90.5686 181.487C73.1815 181.744 57.6055 177.899 43.8407 169.952C30.3175 162.006 19.6921 151.111 11.9645 137.269C4.47845 123.17 0.493951 107.534 0.0109768 90.3591C-0.23051 73.1845 3.5125 57.8042 11.2401 44.2183C18.9677 30.6324 29.7138 19.8662 43.4785 11.9197C57.4848 3.97323 73.1815 0 90.5686 0C107.473 0 122.686 3.84507 136.21 11.5352C149.974 19.2254 160.841 29.9915 168.81 43.8338C176.779 57.676 181.005 73.1845 181.488 90.3591C181.73 107.021 177.987 122.273 170.259 136.115C162.532 149.701 151.665 160.596 137.658 168.799C123.894 177.001 108.197 181.231 90.5686 181.487ZM91.6552 125.349C98.1754 125.349 103.85 122.658 108.68 117.275C113.51 111.892 115.925 105.611 115.925 98.4338C115.925 91.2563 113.51 85.1042 108.68 79.9774C103.85 74.5943 98.1754 71.9028 91.6552 71.9028C85.1351 71.9028 79.4601 74.5943 74.6304 79.9774C69.8006 85.1042 67.3857 91.2563 67.3857 98.4338C67.3857 105.611 69.8006 111.892 74.6304 117.275C79.4601 122.658 85.1351 125.349 91.6552 125.349Z" fill="#F0BB7C"/>
<path fill-rule="evenodd" clip-rule="evenodd" d="M111.932 9.95169C125.795 6.8815 139.77 14.659 144.786 28.2356C147.259 34.9307 152.042 40.469 158.232 43.8051C170.785 50.57 176.607 65.7153 171.92 79.4099L171.572 80.4266C169.484 86.5249 169.652 93.1949 172.042 99.1775L172.855 101.213C177.793 113.568 172.041 127.678 159.988 132.78C152.768 135.836 147.486 142.337 145.87 150.158L145.581 151.554C142.67 165.643 129.244 174.863 115.35 172.531C108.927 171.453 102.261 172.804 96.7551 176.353L96.1164 176.765C84.1175 184.501 68.3869 182.081 59.1356 171.076L58.0062 169.733C54.1717 165.171 48.8382 162.203 43.0124 161.388L42.2249 161.278C28.602 159.373 19.5268 145.896 22.6424 132.199L23.0362 130.467C25.1015 121.387 21.1939 111.98 13.3696 107.195C2.37892 100.475 -0.210717 85.3358 7.89716 75.204L9.46899 73.2398C13.0434 68.7731 14.8953 63.1217 14.6749 57.3523L14.6285 56.1378C14.0727 41.5841 24.9653 29.2378 39.1737 28.3168L42.7095 28.0876C50.4456 27.5861 57.3004 22.8178 60.5993 15.643C65.8526 4.21762 79.4821 -0.242271 90.2477 5.94134L93.2345 7.65692C98.4444 10.6494 104.544 11.5878 110.382 10.2948L111.932 9.95169ZM128.688 108.44C134.25 104.821 135.729 97.2361 131.949 91.7241L129.057 87.5076C127.84 85.7335 127.124 83.6566 126.986 81.5016L126.661 76.4085C126.232 69.7021 120.394 64.6906 113.806 65.3737L108.828 65.8899C105.181 66.268 101.568 64.8853 99.0719 62.1565L97.3876 60.3154C92.7364 55.231 84.8018 55.2598 80.2066 60.3777L77.1975 63.7291C75.7657 65.3238 73.9304 66.49 71.8903 67.1015L65.2613 69.0885C59.6417 70.7729 56.1348 76.428 57.0673 82.3018L58.1673 89.2306C58.5058 91.363 58.2632 93.5476 57.4657 95.5479L54.8742 102.047C52.6774 107.557 54.8547 113.873 59.9616 116.805L65.9857 120.264C67.8397 121.328 69.3725 122.886 70.4181 124.769L73.8156 130.887C76.6957 136.073 82.9177 138.294 88.3534 136.076L94.7654 133.46C96.7387 132.654 98.8927 132.413 100.994 132.76L105.859 133.565C112.437 134.653 118.565 129.944 119.311 123.229L119.731 119.452C120.123 115.917 122.063 112.752 125.012 110.832L128.688 108.44Z" fill="#BAE1FF"/>
<rect width="11.0649" height="2.79798" rx="1.39899" transform="matrix(0.859932 0.510408 -0.493148 0.869946 116.879 28.1395)" fill="#6D3B00"/>
<rect width="11.2444" height="2.75291" rx="1.37645" transform="matrix(0.207779 0.978176 -0.976148 0.217104 90.8722 36.2307)" fill="#FF8B95"/>
<rect width="11.0353" height="2.80529" rx="1.40265" transform="matrix(-0.926223 0.376976 -0.362304 -0.93206 112.299 56.1851)" fill="#FF8B95"/>
<rect width="11.1087" height="2.78711" rx="1.39356" transform="matrix(-0.75259 -0.658489 0.641231 -0.767348 129.905 23.5908)" fill="#FF8B95"/>
<rect width="11.0353" height="2.80529" rx="1.40265" transform="matrix(-0.926223 0.376976 -0.362304 -0.93206 161.112 94.0679)" fill="#FF8B95"/>
<rect width="11.0385" height="2.8045" rx="1.40225" transform="matrix(-0.919189 -0.393816 0.378708 -0.925516 103.661 163.033)" fill="#6D3B00"/>
<rect width="11.1405" height="2.77916" rx="1.38958" transform="matrix(-0.664769 0.747049 -0.73164 -0.681691 107.606 22.2819)" fill="white"/>
<rect width="11.1405" height="2.77916" rx="1.38958" transform="matrix(-0.664769 0.747049 -0.73164 -0.681691 133.189 55.3595)" fill="#FF8B95"/>
<rect width="11.241" height="2.75377" rx="1.37689" transform="matrix(0.236771 0.971565 -0.968953 0.247245 142.222 42.9235)" fill="white"/>
<rect width="11.1405" height="2.77916" rx="1.38958" transform="matrix(-0.664769 0.747049 -0.73164 -0.681691 68.5639 49.7315)" fill="#FF8B95"/>
<rect width="11.0033" height="2.81313" rx="1.40656" transform="matrix(-0.993227 -0.11619 0.111034 -0.993817 66.4028 39.5059)" fill="white"/>
<rect width="11.0013" height="2.81362" rx="1.40681" transform="matrix(-0.997308 -0.0733298 0.0700511 -0.997543 41.7321 44.9034)" fill="#FF8B95"/>
<rect width="11.0013" height="2.81362" rx="1.40681" transform="matrix(-0.997308 -0.0733298 0.0700511 -0.997543 50.8469 75.369)" fill="white"/>
<rect width="11.0302" height="2.80652" rx="1.40326" transform="matrix(-0.937015 0.349289 -0.335395 -0.942078 33.2226 58.8881)" fill="#6D3B00"/>
<rect width="11.1601" height="2.77426" rx="1.38713" transform="matrix(-0.605 0.796225 -0.78255 -0.622587 145.047 132.575)" fill="#FF8B95"/>
<rect width="11.1461" height="2.77778" rx="1.38889" transform="matrix(-0.648425 0.761279 -0.746316 -0.665591 151.859 111.046)" fill="#6D3B00"/>
<rect width="11.0163" height="2.80995" rx="1.40498" transform="matrix(-0.966502 -0.256661 0.24584 -0.969311 141.628 88.14)" fill="#FF8B95"/>
<rect width="11.0163" height="2.80995" rx="1.40498" transform="matrix(-0.966502 -0.256661 0.24584 -0.969311 170.147 63.237)" fill="#6D3B00"/>
<rect width="11.1958" height="2.76525" rx="1.38263" transform="matrix(-0.477911 -0.878408 0.868903 -0.494983 154.267 74.5048)" fill="#FF8B95"/>
<rect width="11.2444" height="2.75289" rx="1.37644" transform="matrix(0.207129 -0.978314 0.976299 0.216429 120.993 158.536)" fill="#FF8B95"/>
<rect width="11.0427" height="2.80347" rx="1.40173" transform="matrix(0.910056 -0.414487 0.398882 0.917002 67.049 160.161)" fill="white"/>
<rect width="11.0427" height="2.80347" rx="1.40173" transform="matrix(0.910056 -0.414487 0.398882 0.917002 59.1245 138.239)" fill="#FF8B95"/>
<rect width="11.0427" height="2.7091" rx="1.35455" transform="matrix(0.910056 -0.414487 0.398882 0.917002 28.875 117.135)" fill="#FF8B95"/>
<rect width="11.0001" height="2.71919" rx="1.35959" transform="matrix(0.999677 0.0254295 -0.0242875 0.999705 41.3496 152.577)" fill="#6D3B00"/>
<rect width="11.0882" height="2.69822" rx="1.34911" transform="matrix(0.804383 -0.594112 0.576422 0.817153 67.7027 19.7918)" fill="#6D3B00"/>
<rect width="11.0163" height="2.80995" rx="1.40498" transform="matrix(-0.966502 -0.256661 0.24584 -0.969311 108.272 144.841)" fill="#FF8B95"/>
<rect width="11.2077" height="2.76224" rx="1.38112" transform="matrix(-0.427514 -0.904009 0.896155 -0.443741 44.6662 143.613)" fill="white"/>
<rect width="11.2321" height="2.75603" rx="1.37801" transform="matrix(0.299308 -0.954157 0.950066 0.312048 22.6434 102.06)" fill="#FF8B95"/>
<rect width="11.1801" height="2.7692" rx="1.3846" transform="matrix(-0.537126 -0.843502 0.832021 -0.554744 51.38 102.42)" fill="#6D3B00"/>
<rect width="11.1801" height="2.7692" rx="1.3846" transform="matrix(-0.537126 -0.843502 0.832021 -0.554744 125.629 130.559)" fill="white"/>
</svg>
